<svg width="413" height="445" viewBox="0 0 413 445" fill="none" xmlns="http://www.w3.org/2000/svg">
<path d="M70.0247 127.213L73.1353 83.664L99.5759 86.7747L116.685 103.883L70.0247 127.213Z" fill="#E6A6B9"/>
<path d="M290.882 127.213L287.771 83.664L261.33 86.7747L244.222 103.883L290.882 127.213Z" fill="#E6A6B9"/>
<path d="M74.6906 118.496C73.1353 109.026 71.891 89.4649 79.3566 86.9764C88.6886 83.8657 99.5759 94.0026 107.353 100.599C112.096 98.6657 116.989 96.9186 122.015 95.3704C114.535 84.7958 94.9099 63.9576 76.2459 65.2019C52.916 66.7572 63.8033 122.213 63.8033 127.147C67.2375 124.123 70.8719 121.235 74.6906 118.496Z" fill="#F9E3C5"/>
<path d="M178.898 320.276C195.803 320.276 212.065 318.17 227.261 314.282C231.747 313.134 236.141 311.83 240.431 310.38C293.962 292.282 331.32 251.293 331.32 203.626C331.32 174.367 317.244 147.303 293.992 126.476C290.087 122.978 285.922 119.655 281.522 116.528C271.727 109.566 260.763 103.571 248.888 98.7541C245.338 97.3142 241.706 95.9795 238 94.7558C219.826 88.7545 199.856 85.421 178.898 85.421C158.79 85.421 139.591 89.9562 122.015 95.3704C116.989 96.9186 112.096 98.6657 107.353 100.599C95.4348 105.456 84.4594 111.489 74.6906 118.496C70.8719 121.235 67.2375 124.123 63.8033 127.147C40.5512 147.624 26.4753 174.367 26.4753 203.626C26.4753 251.091 63.5173 291.934 116.685 310.149C121.19 311.692 125.811 313.073 130.535 314.282C145.731 318.17 161.993 320.276 178.898 320.276Z" fill="#F9E3C5"/>
<path d="M286.216 65.2017C267.552 62.7132 246.295 83.8675 238 94.7558C241.706 95.9795 245.338 97.3142 248.888 98.7541C247.332 99.6442 272.218 80.7553 278.439 86.9766C283.416 91.9537 282.568 108.751 281.522 116.528C285.922 119.655 290.087 122.978 293.992 126.476C298.969 82.1753 290.882 67.1678 286.216 65.2017Z" fill="#F9E3C5"/>
<path d="M132.238 343.606L133.793 363.826C126.535 365.381 109.53 367.558 99.5759 363.826C87.1333 359.16 85.5779 352.938 85.5779 345.162C82.9857 343.088 76.8681 340.496 73.1353 346.717C68.4693 354.494 70.0246 365.381 79.3566 373.158C88.6886 380.934 91.7993 384.045 105.797 387.156C116.996 389.644 133.275 387.156 140.015 385.6V413.596H177.342V391.822H186.674L222.447 371.602C224.521 369.528 228.895 354.487 227.651 340.8L227.261 314.282C212.065 318.17 195.803 320.276 178.898 320.276C161.993 320.276 145.731 318.17 130.535 314.282L132.238 343.606Z" fill="#F9E3C5"/>
<rect x="126" y="401" width="52.8813" height="40.4386" rx="20.2193" fill="#EAA76E"/>
<rect x="185" y="387.634" width="41.9902" height="46" transform="rotate(-27.7654 185 387.634)" fill="#F9E3C5"/>
<rect x="193" y="409.479" width="52.8813" height="40.4386" rx="20.2193" transform="rotate(-28.8041 193 409.479)" fill="#EAA76E"/>
<ellipse cx="136.407" cy="180.804" rx="29.5513" ry="24.8853" fill="#EAA76E"/>
<circle cx="150.133" cy="180.571" r="13.998" fill="black"/>
<circle cx="216.633" cy="180.571" r="13.998" fill="black"/>
<circle cx="256.168" cy="224.821" r="21.7746" fill="#E6A6B9"/>
<circle cx="256.168" cy="224.821" r="21.7746" fill="#E6A6B9"/>
<circle cx="100.635" cy="224.432" r="21.7746" fill="#E6A6B9"/>
<circle cx="100.635" cy="224.432" r="21.7746" fill="#E6A6B9"/>
<ellipse cx="179.957" cy="192.236" rx="7.77666" ry="6.22132" fill="#4A2D0C"/>
<path d="M154.7 216.4C153.816 215.737 152.563 215.916 151.9 216.8C151.237 217.684 151.416 218.937 152.3 219.6L154.7 216.4ZM206.387 219.441C207.183 218.674 207.207 217.408 206.441 216.613C205.674 215.817 204.408 215.793 203.613 216.559L206.387 219.441ZM152.3 219.6C159.65 225.113 169.553 228.486 179.371 228.811C189.194 229.137 199.149 226.41 206.387 219.441L203.613 216.559C197.35 222.59 188.555 225.113 179.504 224.814C170.447 224.514 161.349 221.387 154.7 216.4L152.3 219.6Z" fill="#E25259"/>
<rect x="2.0918" y="180.166" width="37.0371" height="12.8173" rx="6.40866" transform="rotate(9.39261 2.0918 180.166)" fill="#4A2D0C"/>
<rect y="206.182" width="37.0371" height="12.8173" rx="6.40866" transform="rotate(-6.57718 0 206.182)" fill="#4A2D0C"/>
<rect width="37.0371" height="12.8173" rx="6.40866" transform="matrix(-0.986593 0.163199 0.163199 0.986593 347.908 180.166)" fill="#4A2D0C"/>
<rect width="37.0371" height="12.8173" rx="6.40866" transform="matrix(-0.993419 -0.114542 -0.114542 0.993419 350 206.182)" fill="#4A2D0C"/>
<rect width="37.0371" height="12.8173" rx="6.40866" transform="matrix(-0.901289 -0.433219 -0.433219 0.901289 343.779 233.539)" fill="#4A2D0C"/>
<rect x="6.22144" y="233.539" width="37.0371" height="12.8173" rx="6.40866" transform="rotate(-25.672 6.22144 233.539)" fill="#4A2D0C"/>
<rect x="227.505" y="148.667" width="33.9894" height="129" rx="10" transform="rotate(19.4484 227.505 148.667)" fill="#DDAE8C"/>
<rect x="172.774" y="0.447113" width="259" height="136" rx="10" transform="rotate(21.9615 172.774 0.447113)" fill="#DDAE8C"/>
<path d="M236.679 109.731L234.198 115.885L200.543 102.314L203.025 96.1597L216.502 101.594L218.67 96.219L207.023 91.5226L215.002 71.7348L244.996 83.8294L237.016 103.617L225.37 98.9207L223.202 104.296L236.679 109.731ZM216.033 88.0459L232.938 94.8628L235.97 87.345L219.065 80.5281L216.033 88.0459ZM283.268 98.3569L276.326 115.574L269.743 112.919L276.685 95.7023L283.268 98.3569ZM258.244 102.577C256.271 103.502 254.109 104.034 251.759 104.173C249.444 104.296 247.134 103.923 244.828 103.054L247.137 97.3278C249.205 98.0407 251.17 98.1086 253.033 97.5315C254.922 96.9648 256.378 96.0122 257.401 94.6736L249.961 91.6735L252.144 86.2591L273.646 94.9295L271.462 100.344L264.1 97.3752C263.912 97.6919 263.542 98.2368 262.988 99.01L270.032 107.149L265.108 110.824L258.244 102.577ZM269.388 114.135L275.854 116.742L269.854 131.622L240.095 119.622L246.095 104.742L252.561 107.349L251.681 109.531L268.509 116.316L269.388 114.135ZM265.493 123.795L266.451 121.419L249.624 114.633L248.665 117.01L265.493 123.795ZM300.675 116.788C298.485 117.052 296.026 116.936 293.298 116.44C290.595 115.954 287.831 115.172 285.006 114.093L287.063 108.99C289.499 109.912 291.908 110.566 294.288 110.952C296.694 111.349 298.558 111.33 299.88 110.897L288.584 106.342L290.61 101.317L320.448 113.349L318.421 118.374L307.242 113.866C307.174 113.96 306.966 114.177 306.616 114.519L317.967 121.859L314.586 126.202L300.675 116.788ZM301.073 127.817L300.445 129.375C304.126 131.102 306.796 132.903 308.455 134.779C310.139 136.666 310.579 138.609 309.772 140.609C308.023 144.946 302.085 145.072 291.958 140.988C281.83 136.904 277.641 132.694 279.389 128.357C280.196 126.358 281.847 125.257 284.343 125.056C286.866 124.866 290.051 125.426 293.901 126.737L294.529 125.178L280.973 119.712L283.015 114.649L316.67 128.22L314.628 133.283L301.073 127.817ZM302.761 137.782C303.19 136.717 300.678 135.085 295.225 132.886C289.772 130.687 286.83 130.12 286.401 131.185C285.972 132.249 288.484 133.881 293.937 136.08C299.39 138.279 302.331 138.846 302.761 137.782ZM324.017 140.602L319.187 138.654L325.956 116.702L334.369 120.095L324.017 140.602ZM320.455 142.471C321.65 142.953 322.48 143.741 322.944 144.834C323.409 145.927 323.401 147.071 322.919 148.265C322.438 149.46 321.655 150.277 320.573 150.716C319.479 151.18 318.336 151.172 317.141 150.69C315.947 150.209 315.117 149.421 314.652 148.328C314.177 147.261 314.18 146.13 314.661 144.935C315.143 143.741 315.931 142.911 317.024 142.446C318.117 141.981 319.261 141.99 320.455 142.471Z" fill="white"/>
<g filter="url(#filter0_d_399_909)">
<rect x="191.999" y="272.212" width="30.8" height="61.1755" rx="15.4" transform="rotate(-20.9535 191.999 272.212)" fill="#F9E3C5"/>
<circle cx="205.59" cy="266.859" r="23.33" transform="rotate(0.634378 205.59 266.859)" fill="#EAA76E"/>
</g>
<g filter="url(#filter1_d_399_909)">
<rect x="173.392" y="256.32" width="30.8" height="77.9394" rx="15.4" transform="rotate(51.2294 173.392 256.32)" fill="#F9E3C5"/>
<circle cx="185.863" cy="267.612" r="23.33" transform="rotate(29.3495 185.863 267.612)" fill="#EAA76E"/>
</g>
<defs>
<filter id="filter0_d_399_909" x="177.26" y="238.529" width="75.8954" height="101.328" filterUnits="userSpaceOnUse" color-interpolation-filters="sRGB">
<feFlood flood-opacity="0" result="BackgroundImageFix"/>
<feColorMatrix in="SourceAlpha" type="matrix" values="0 0 0 0 0 0 0 0 0 0 0 0 0 0 0 0 0 0 127 0" result="hardAlpha"/>
<feOffset dx="5" dy="5"/>
<feGaussianBlur stdDeviation="5"/>
<feComposite in2="hardAlpha" operator="out"/>
<feColorMatrix type="matrix" values="0 0 0 0 0 0 0 0 0 0 0 0 0 0 0 0 0 0 0.15 0"/>
<feBlend mode="normal" in2="BackgroundImageFix" result="effect1_dropShadow_399_909"/>
<feBlend mode="normal" in="SourceGraphic" in2="effect1_dropShadow_399_909" result="shape"/>
</filter>
<filter id="filter1_d_399_909" x="113.876" y="239.278" width="110.321" height="98.6122" filterUnits="userSpaceOnUse" color-interpolation-filters="sRGB">
<feFlood flood-opacity="0" result="BackgroundImageFix"/>
<feColorMatrix in="SourceAlpha" type="matrix" values="0 0 0 0 0 0 0 0 0 0 0 0 0 0 0 0 0 0 127 0" result="hardAlpha"/>
<feOffset dx="5" dy="5"/>
<feGaussianBlur stdDeviation="5"/>
<feComposite in2="hardAlpha" operator="out"/>
<feColorMatrix type="matrix" values="0 0 0 0 0 0 0 0 0 0 0 0 0 0 0 0 0 0 0.15 0"/>
<feBlend mode="normal" in2="BackgroundImageFix" result="effect1_dropShadow_399_909"/>
<feBlend mode="normal" in="SourceGraphic" in2="effect1_dropShadow_399_909" result="shape"/>
</filter>
</defs>
</svg>
