<svg width="250" height="250" viewBox="0 0 250 250" fill="none" xmlns="http://www.w3.org/2000/svg">
<path d="M28.9402 163.503L62.2578 150.039C63.5985 149.436 65.2595 150.25 65.8892 151.187C66.5185 152.124 66.0196 154.059 64.989 154.68L32.3239 171.2C30.9811 171.866 28.3526 171.051 27.4515 169.279C26.4685 167.346 27.0683 164.02 28.9402 163.503Z" fill="black"/>
<path d="M33.2124 61.221L62.995 81.329C64.2444 82.1038 64.4971 83.9363 64.0718 84.9823C63.6469 86.0273 61.7627 86.6952 60.6719 86.1875L28.7199 68.3281C27.4167 67.5871 26.6237 64.9519 27.5898 63.2143C28.6436 61.3191 31.7377 59.9575 33.2124 61.221Z" fill="black"/>
<path d="M132.8 17.4093L131.607 53.3246C131.616 54.7948 130.198 55.9832 129.086 56.1792C127.975 56.3751 126.408 55.1346 126.258 53.9408L124.392 17.3839C124.327 15.8861 126.137 13.8132 128.122 13.7075C130.287 13.5921 133.086 15.4885 132.8 17.4093Z" fill="black"/>
<path d="M222.65 68.5395L191.641 86.6986C190.402 87.4902 188.64 86.9255 187.881 86.0898C187.123 85.2548 187.335 83.2671 188.264 82.5031L218.184 61.4155C219.416 60.5609 222.135 60.9853 223.284 62.6078C224.537 64.3775 224.427 67.7561 222.65 68.5395Z" fill="black"/>
<path d="M217.498 172.557L186.637 154.147C185.346 153.443 184.992 151.627 185.358 150.559C185.723 149.492 187.567 148.72 188.685 149.166L221.586 165.21C222.928 165.877 223.868 168.464 223 170.253C222.054 172.204 219.041 173.736 217.498 172.557Z" fill="black"/>
<path d="M103.213 204.479C111.585 205.479 139.725 206.104 150.19 204.479" stroke="black" stroke-width="8" stroke-linecap="round"/>
<path d="M107.441 215.724C112.895 216.599 140.28 216.599 146.198 215.724" stroke="black" stroke-width="8" stroke-linecap="round"/>
<path d="M114.253 226.719C115.897 227.094 137.624 227.094 139.386 226.719" stroke="black" stroke-width="8" stroke-linecap="round"/>
<path d="M87.3941 110.111C87.0675 112.017 88.3472 113.826 90.2524 114.152C92.1576 114.479 93.9668 113.199 94.2934 111.294L87.3941 110.111ZM116.581 86.8765C118.495 86.6005 119.822 84.8258 119.546 82.9126C119.27 80.9994 117.495 79.6723 115.582 79.9483L116.581 86.8765ZM94.2934 111.294C96.3524 99.2836 105.945 88.411 116.581 86.8765L115.582 79.9483C101.23 82.0189 89.833 95.8845 87.3941 110.111L94.2934 111.294Z" fill="black"/>
<circle cx="129.5" cy="118.5" r="32.5" fill="url(#paint0_radial_229_1628)"/>
<path d="M128.451 69.4191L128.451 65.9191L128.451 69.4191ZM161.061 155.753L164.094 157.499L161.061 155.753ZM153.064 191.486L151.89 188.189L153.064 191.486ZM101.464 191.486L100.124 194.719L101.464 191.486ZM94.4675 159.126L97.44 157.278L94.4675 159.126ZM97.841 78.9146L99.906 81.7405L97.841 78.9146ZM174.554 129.694L171.163 128.826L174.554 129.694ZM128.451 72.9191C142.278 72.9192 153.861 79.658 163.316 91.5839L168.801 87.2352C158.361 74.0664 144.911 65.9192 128.451 65.9191L128.451 72.9191ZM158.027 154.006C152.882 162.944 151.633 172.228 151.209 179.162C151.103 180.898 151.047 182.505 151 183.908C150.951 185.339 150.911 186.509 150.839 187.48C150.763 188.495 150.667 189.029 150.593 189.267C150.48 189.636 150.663 188.626 151.89 188.189L154.239 194.783C156.266 194.061 157.003 192.236 157.282 191.332C157.601 190.297 157.737 189.102 157.819 188.001C157.905 186.857 157.949 185.528 157.996 184.146C158.043 182.737 158.096 181.219 158.196 179.59C158.595 173.066 159.744 165.054 164.094 157.499L158.027 154.006ZM151.89 188.189C146.542 190.093 136.7 191.161 126.654 191.164C121.698 191.165 116.824 190.907 112.599 190.398C108.309 189.88 104.922 189.131 102.805 188.253L100.124 194.719C103.129 195.965 107.269 196.806 111.761 197.347C116.316 197.896 121.476 198.165 126.656 198.164C136.882 198.161 147.717 197.106 154.239 194.783L151.89 188.189ZM102.805 188.253C103.851 188.686 103.952 189.493 103.72 188.864C103.568 188.454 103.395 187.732 103.223 186.613C102.881 184.378 102.664 181.427 102.349 177.936C102.042 174.542 101.649 170.76 100.947 167.209C100.255 163.705 99.2091 160.124 97.44 157.278L91.495 160.974C92.5994 162.751 93.4454 165.353 94.0798 168.565C94.705 171.731 95.0727 175.2 95.3771 178.567C95.6728 181.836 95.9182 185.155 96.3041 187.673C96.4968 188.93 96.754 190.206 97.152 191.286C97.4697 192.148 98.2389 193.937 100.124 194.719L102.805 188.253ZM97.44 157.278C93.4574 150.872 80.9757 139.059 80.9756 120.145L73.9756 120.145C73.9757 141.711 88.6622 156.417 91.495 160.974L97.44 157.278ZM80.9756 120.145C80.9755 101.234 90.8758 88.3395 99.906 81.7405L95.7759 76.0887C85.3155 83.7329 73.9755 98.5749 73.9756 120.145L80.9756 120.145ZM99.906 81.7405C108.562 75.4148 119.991 72.9191 128.451 72.9191L128.451 65.9191C118.92 65.9191 105.927 68.6709 95.7759 76.0887L99.906 81.7405ZM163.316 91.5839C167.781 97.2162 170.257 104.649 171.338 111.801C172.422 118.979 172.034 125.422 171.163 128.826L177.945 130.561C179.106 126.022 179.444 118.597 178.259 110.755C177.071 102.888 174.283 94.1504 168.801 87.2352L163.316 91.5839ZM171.163 128.826C168.12 140.725 162.456 146.314 158.027 154.006L164.094 157.499C167.67 151.288 174.589 143.68 177.945 130.561L171.163 128.826Z" fill="black"/>
<defs>
<radialGradient id="paint0_radial_229_1628" cx="0" cy="0" r="1" gradientUnits="userSpaceOnUse" gradientTransform="translate(129.5 118.5) rotate(90) scale(32.5)">
<stop stop-color="#FCF88E" stop-opacity="0.74"/>
<stop offset="1" stop-color="#FCF88E" stop-opacity="0.05"/>
</radialGradient>
</defs>
</svg>
