<svg width="250" height="250" viewBox="0 0 250 250" fill="none" xmlns="http://www.w3.org/2000/svg">
<path d="M147.126 57.6929C136.715 70.9347 139.584 88.2627 142.801 99.0586C157.328 100.611 164.097 100.669 179.287 93.1423C191.264 87.2076 204.683 65.75 213 48.1169C189.157 37.9141 160.988 40.0598 147.126 57.6929Z" fill="#B5F2A6" stroke="black" stroke-width="8" stroke-linecap="round" stroke-linejoin="round"/>
<path d="M124.391 159.46C69.2741 159.46 50.9756 207.924 50.9756 207.924H204.572C204.572 207.924 186.749 159.46 124.391 159.46Z" fill="white" stroke="black" stroke-width="7" stroke-linecap="round" stroke-linejoin="round"/>
<path d="M76.9259 106.302C56.5926 99.6876 38 66.5263 38 66.5263C38 66.5263 81.6946 58.0246 99.5494 73.2912C110.169 82.3717 107.534 102.199 107.534 102.199C107.534 102.199 92.8954 111.497 76.9259 106.302Z" fill="#B5F2A6" stroke="black" stroke-width="8" stroke-linecap="round" stroke-linejoin="round"/>
<path d="M125.5 156.577C125.5 148.309 126.542 140.805 131.003 126.634M175.516 62.5339C151.132 80.2868 137.771 105.135 131.003 126.634M131.003 126.634C124.363 116.246 105.893 93.231 85.1323 84.2703" stroke="black" stroke-width="8" stroke-linecap="round" stroke-linejoin="round"/>
</svg>
