<svg width="215" height="64" viewBox="0 0 215 64" fill="none" xmlns="http://www.w3.org/2000/svg">
<path d="M53.2161 11.2L39.0638 52.7833H29.4542L15.3601 11.2H24.2708L32.075 35.952C32.2303 36.3791 32.4438 37.175 32.7156 38.3398C33.0262 39.4658 33.3369 40.6694 33.6475 41.9507C33.9581 43.1932 34.1716 44.2415 34.2881 45.0957C34.4046 44.2415 34.5987 43.1932 34.8705 41.9507C35.1811 40.6694 35.4917 39.4658 35.8024 38.3398C36.113 37.175 36.3265 36.3791 36.443 35.952L44.3054 11.2H53.2161Z" fill="#FF7A7A"/>
<path d="M48.4161 11.2L34.2637 52.7834H24.6541L10.5601 11.2H19.4708L27.2749 35.952C27.4302 36.3791 27.6438 37.175 27.9156 38.3398C28.2262 39.4658 28.5368 40.6694 28.8474 41.9507C29.158 43.1932 29.3716 44.2415 29.4881 45.0957C29.6045 44.2415 29.7987 43.1932 30.0705 41.9507C30.3811 40.6694 30.6917 39.4658 31.0023 38.3398C31.3129 37.175 31.5265 36.3791 31.6429 35.952L39.5053 11.2H48.4161Z" fill="#333333"/>
<path d="M95.2263 16.3299L83.5525 52.4935H75.6258L64 16.3299H71.3502L77.7876 37.8558C77.9157 38.2273 78.0919 38.9195 78.3161 39.9325C78.5723 40.9117 78.8285 41.9584 79.0847 43.0727C79.3409 44.1532 79.5171 45.0649 79.6132 45.8078C79.7093 45.0649 79.8694 44.1532 80.0936 43.0727C80.3498 41.9584 80.606 40.9117 80.8622 39.9325C81.1184 38.9195 81.2946 38.2273 81.3907 37.8558L87.8761 16.3299H95.2263Z" fill="#333333"/>
<path d="M104.037 14C105.093 14 106.006 14.2701 106.775 14.8104C107.543 15.3169 107.928 16.2792 107.928 17.6974C107.928 19.0818 107.543 20.0442 106.775 20.5844C106.006 21.1247 105.093 21.3948 104.037 21.3948C102.948 21.3948 102.019 21.1247 101.25 20.5844C100.514 20.0442 100.145 19.0818 100.145 17.6974C100.145 16.2792 100.514 15.3169 101.25 14.8104C102.019 14.2701 102.948 14 104.037 14ZM107.592 24.839V52.4935H100.433V24.839H107.592Z" fill="#333333"/>
<path d="M131.405 24.3325C134.223 24.3325 136.481 25.1429 138.178 26.7636C139.876 28.3506 140.724 30.9169 140.724 34.4623V52.4935H133.566V36.3364C133.566 34.3442 133.23 32.8584 132.558 31.8792C131.885 30.8662 130.812 30.3597 129.339 30.3597C127.161 30.3597 125.672 31.1532 124.871 32.7403C124.07 34.2935 123.67 36.539 123.67 39.4766V52.4935H116.512V24.839H121.989L122.949 28.3844H123.334C124.167 26.9662 125.303 25.9364 126.745 25.2948C128.218 24.6532 129.771 24.3325 131.405 24.3325Z" fill="#333333"/>
<path d="M160.576 46.9727C161.377 46.9727 162.145 46.8883 162.882 46.7195C163.619 46.5506 164.355 46.3481 165.092 46.1117V51.7338C164.323 52.0714 163.362 52.3584 162.209 52.5948C161.089 52.8649 159.855 53 158.51 53C156.941 53 155.532 52.7299 154.283 52.1896C153.066 51.6493 152.089 50.7208 151.352 49.4039C150.648 48.0532 150.295 46.1961 150.295 43.8325V30.5117H146.885V27.3208L150.824 24.7883L152.89 18.9636H157.453V24.839H164.804V30.5117H157.453V43.8325C157.453 44.8792 157.742 45.6727 158.318 46.213C158.895 46.7195 159.647 46.9727 160.576 46.9727Z" fill="#333333"/>
<path d="M190.053 52.4935H169.348V48.0364L181.502 30.613H170.069V24.839H189.621V29.7519L177.803 46.7195H190.053V52.4935Z" fill="#333333"/>
<path d="M215 44.2883C215 47.0909 214.055 49.2519 212.166 50.7714C210.308 52.2571 207.522 53 203.807 53C201.981 53 200.412 52.8649 199.099 52.5948C197.785 52.3584 196.472 51.9532 195.159 51.3792V45.1494C196.568 45.8247 198.09 46.3818 199.723 46.8208C201.356 47.2597 202.798 47.4792 204.047 47.4792C205.456 47.4792 206.449 47.2597 207.025 46.8208C207.634 46.3818 207.938 45.8078 207.938 45.0987C207.938 44.626 207.81 44.2039 207.554 43.8325C207.33 43.461 206.817 43.039 206.016 42.5662C205.216 42.0935 203.967 41.4857 202.269 40.7429C200.636 40 199.291 39.274 198.234 38.5649C197.177 37.8221 196.392 36.9442 195.88 35.9312C195.367 34.8844 195.111 33.5844 195.111 32.0312C195.111 29.4649 196.056 27.5403 197.946 26.2571C199.835 24.974 202.349 24.3325 205.488 24.3325C207.121 24.3325 208.675 24.5013 210.148 24.839C211.621 25.1766 213.142 25.7338 214.712 26.5104L212.55 31.9299C211.269 31.3558 210.052 30.8831 208.899 30.5117C207.746 30.1065 206.577 29.9039 205.392 29.9039C203.278 29.9039 202.221 30.5117 202.221 31.7273C202.221 32.1662 202.349 32.5714 202.606 32.9429C202.894 33.2805 203.422 33.6519 204.191 34.0571C204.992 34.4623 206.161 35.0026 207.698 35.6779C209.203 36.3195 210.5 36.9948 211.589 37.7039C212.678 38.3792 213.511 39.2403 214.087 40.287C214.696 41.3 215 42.6338 215 44.2883Z" fill="#333333"/>
</svg>
