<svg width="105" height="30" viewBox="0 0 105 30" fill="none" xmlns="http://www.w3.org/2000/svg">
<path d="M24.8871 4.97754L18.2815 24.3866H13.7962L7.21777 4.97754H11.3769L15.0195 16.5305C15.0919 16.7299 15.1916 17.1014 15.3185 17.6451C15.4634 18.1706 15.6084 18.7324 15.7534 19.3305C15.8984 19.9104 15.9981 20.3997 16.0524 20.7984C16.1068 20.3997 16.1974 19.9104 16.3243 19.3305C16.4692 18.7324 16.6142 18.1706 16.7592 17.6451C16.9042 17.1014 17.0039 16.7299 17.0582 16.5305L20.728 4.97754H24.8871Z" fill="#FF7A7A"/>
<path d="M22.6468 4.97754L16.0412 24.3866H11.556L4.97754 4.97754H9.13662L12.7792 16.5305C12.8517 16.7299 12.9514 17.1014 13.0782 17.6451C13.2232 18.1706 13.3682 18.7324 13.5132 19.3305C13.6582 19.9104 13.7578 20.3997 13.8122 20.7984C13.8666 20.3997 13.9572 19.9104 14.084 19.3305C14.229 18.7324 14.374 18.1706 14.519 17.6451C14.6639 17.1014 14.7636 16.7299 14.818 16.5305L18.4878 4.97754H22.6468Z" fill="#333333"/>
<path d="M48.2225 6.79293L42.6886 23.936H38.931L33.4199 6.79293H36.9042L39.9558 16.9971C40.0165 17.1732 40.1 17.5013 40.2063 17.9815C40.3278 18.4457 40.4492 18.9419 40.5707 19.4701C40.6922 19.9823 40.7757 20.4145 40.8212 20.7667C40.8667 20.4145 40.9427 19.9823 41.0489 19.4701C41.1704 18.9419 41.2918 18.4457 41.4133 17.9815C41.5348 17.5013 41.6183 17.1732 41.6638 16.9971L44.7382 6.79293H48.2225Z" fill="#333333"/>
<path d="M52.3989 5.68848C52.8999 5.68848 53.3326 5.81653 53.6969 6.07263C54.0613 6.31273 54.2435 6.76892 54.2435 7.4412C54.2435 8.09747 54.0613 8.55365 53.6969 8.80976C53.3326 9.06586 52.8999 9.19391 52.3989 9.19391C51.8827 9.19391 51.4424 9.06586 51.078 8.80976C50.7288 8.55365 50.5542 8.09747 50.5542 7.4412C50.5542 6.76892 50.7288 6.31273 51.078 6.07263C51.4424 5.81653 51.8827 5.68848 52.3989 5.68848ZM54.0841 10.8266V23.936H50.6909V10.8266H54.0841Z" fill="#333333"/>
<path d="M65.3724 10.5865C66.7085 10.5865 67.7788 10.9706 68.5835 11.739C69.3881 12.4913 69.7904 13.7078 69.7904 15.3885V23.936H66.3972V16.2768C66.3972 15.3324 66.2378 14.6281 65.919 14.164C65.6002 13.6838 65.0916 13.4437 64.3932 13.4437C63.3608 13.4437 62.6549 13.8198 62.2753 14.5721C61.8957 15.3084 61.706 16.3729 61.706 17.7654V23.936H58.3128V10.8266H60.9089L61.3644 12.5073H61.5466C61.9413 11.835 62.4803 11.3468 63.1635 11.0427C63.8618 10.7385 64.5982 10.5865 65.3724 10.5865Z" fill="#333333"/>
<path d="M79.2009 21.3189C79.5805 21.3189 79.9448 21.2789 80.294 21.1988C80.6432 21.1188 80.9924 21.0228 81.3416 20.9107V23.5758C80.9772 23.7359 80.5218 23.8719 79.9752 23.984C79.4438 24.112 78.8593 24.1761 78.2217 24.1761C77.4777 24.1761 76.8097 24.048 76.2176 23.7919C75.6407 23.5358 75.1777 23.0956 74.8285 22.4714C74.4945 21.8311 74.3275 20.9507 74.3275 19.8303V13.5157H72.7106V12.0031L74.578 10.8026L75.5572 8.04144H77.7207V10.8266H81.205V13.5157H77.7207V19.8303C77.7207 20.3265 77.8573 20.7026 78.1306 20.9587C78.4039 21.1988 78.7606 21.3189 79.2009 21.3189Z" fill="#333333"/>
<path d="M93.1744 23.936H83.3592V21.8231L89.1208 13.5637H83.7008V10.8266H92.9694V13.1555L87.3672 21.1988H93.1744V23.936Z" fill="#333333"/>
<path d="M105 20.0464C105 21.3749 104.552 22.3993 103.656 23.1196C102.776 23.8239 101.455 24.1761 99.6939 24.1761C98.8285 24.1761 98.0846 24.112 97.4621 23.984C96.8397 23.8719 96.2172 23.6799 95.5947 23.4077V20.4545C96.2628 20.7747 96.9839 21.0388 97.7582 21.2469C98.5325 21.4549 99.2157 21.559 99.8078 21.559C100.476 21.559 100.946 21.4549 101.22 21.2469C101.508 21.0388 101.652 20.7667 101.652 20.4305C101.652 20.2064 101.592 20.0064 101.47 19.8303C101.364 19.6542 101.121 19.4541 100.741 19.23C100.362 19.0059 99.7698 18.7178 98.9652 18.3657C98.1909 18.0135 97.5532 17.6694 97.0522 17.3333C96.5512 16.9811 96.1793 16.5649 95.9363 16.0847C95.6934 15.5885 95.572 14.9723 95.572 14.236C95.572 13.0195 96.0198 12.1071 96.9156 11.4989C97.8113 10.8906 99.0031 10.5865 100.491 10.5865C101.265 10.5865 102.002 10.6665 102.7 10.8266C103.398 10.9867 104.119 11.2508 104.863 11.6189L103.839 14.188C103.231 13.9159 102.654 13.6918 102.108 13.5157C101.561 13.3236 101.007 13.2276 100.445 13.2276C99.4434 13.2276 98.9424 13.5157 98.9424 14.0919C98.9424 14.3 99.0031 14.4921 99.1246 14.6682C99.2612 14.8282 99.5117 15.0043 99.8761 15.1964C100.256 15.3885 100.81 15.6446 101.539 15.9647C102.252 16.2688 102.867 16.5889 103.383 16.9251C103.899 17.2452 104.294 17.6534 104.567 18.1496C104.856 18.6298 105 19.262 105 20.0464Z" fill="#333333"/>
</svg>
